<svg width="38" height="14" viewBox="0 0 38 14" fill="none" xmlns="http://www.w3.org/2000/svg">
<path d="M19.6035 5.06359C19.5835 6.55925 21.0126 7.39394 22.0892 7.89017C23.1954 8.39937 23.5669 8.72586 23.5627 9.18115C23.5543 9.87806 22.6803 10.1856 21.8623 10.1976C20.4353 10.2185 19.6057 9.83313 18.946 9.54158L18.432 11.817C19.0937 12.1056 20.3192 12.3572 21.59 12.3682C24.5728 12.3682 26.5244 10.9753 26.535 8.81572C26.5466 6.07501 22.5273 5.92324 22.5547 4.69816C22.5642 4.32674 22.9389 3.93036 23.7601 3.82952C24.1664 3.7786 25.2884 3.73966 26.5603 4.29379L27.0595 2.09223C26.3756 1.8566 25.4964 1.63096 24.4018 1.63096C21.5942 1.63096 19.6194 3.04275 19.6035 5.06359ZM31.8568 1.82066C31.3121 1.82066 30.853 2.12119 30.6482 2.58247L26.3872 12.2064H29.3679L29.9611 10.6558H33.6036L33.9477 12.2064H36.5748L34.2823 1.82066H31.8568ZM32.2737 4.62627L33.1339 8.52617H30.778L32.2737 4.62627ZM15.9895 1.82066L13.64 12.2064H16.4803L18.8288 1.82066H15.9895ZM11.7876 1.82066L8.83119 8.8896L7.63532 2.879C7.49494 2.20805 6.94081 1.82066 6.32546 1.82066H1.49236L1.4248 2.12219C2.41697 2.32587 3.54423 2.65436 4.22714 3.00581C4.64511 3.22047 4.76438 3.40818 4.9016 3.91838L7.16668 12.2064H10.1685L14.7704 1.82066H11.7876Z" fill="url(#paint0_linear_1_23008)"/>
<defs>
<linearGradient id="paint0_linear_1_23008" x1="17.5847" y1="12.5836" x2="17.8787" y2="1.55537" gradientUnits="userSpaceOnUse">
<stop stop-color="#222357"/>
<stop offset="1" stop-color="#254AA5"/>
</linearGradient>
</defs>
</svg>
