<svg width="20" height="20" viewBox="0 0 20 20" fill="none" xmlns="http://www.w3.org/2000/svg">
<path d="M19.7009 12.4183C18.3647 17.7783 12.9343 21.0365 7.5819 19.7004C2.22174 18.3643 -1.03655 12.934 0.299583 7.58173C1.63572 2.22169 7.05839 -1.03653 12.4186 0.299576C17.7709 1.62787 21.037 7.05823 19.7009 12.4183Z" fill="url(#paint0_linear_1_23010)"/>
<path d="M14.7612 8.75391C14.9565 7.42578 13.9487 6.70703 12.5581 6.23047L13.0112 4.42578L11.9175 4.15234L11.48 5.91016C11.1909 5.83984 10.894 5.76953 10.5972 5.70703L11.0347 3.94141L9.94092 3.66797L9.4956 5.46484C9.25342 5.41016 9.01904 5.35547 8.79248 5.30078V5.29297L7.27685 4.91797L6.98779 6.08984C6.98779 6.08984 7.80029 6.27734 7.78467 6.28516C8.22998 6.39453 8.3081 6.69141 8.29248 6.92578L7.77685 8.98047C7.80811 8.98828 7.84717 8.99609 7.89404 9.01953C7.85498 9.01172 7.81592 9.00391 7.77685 8.98828L7.05811 11.8633C7.00342 11.9961 6.86279 12.1992 6.55811 12.1211C6.56592 12.1367 5.76123 11.9258 5.76123 11.9258L5.21436 13.1836L6.64404 13.543C6.90967 13.6133 7.16748 13.6758 7.42529 13.7461L6.97217 15.5664L8.06592 15.8398L8.51904 14.0352C8.81592 14.1133 9.11279 14.1914 9.39404 14.2617L8.94873 16.0586L10.0425 16.332L10.4956 14.5117C12.3706 14.8633 13.7769 14.7227 14.3628 13.0273C14.8394 11.668 14.3394 10.8789 13.355 10.3633C14.0815 10.1992 14.6206 9.72266 14.7612 8.75391ZM12.2534 12.2695C11.9175 13.6289 9.6206 12.8945 8.87842 12.707L9.47998 10.293C10.2222 10.4805 12.6128 10.8477 12.2534 12.2695ZM12.5972 8.73047C12.2847 9.97266 10.3784 9.33984 9.76123 9.18359L10.3081 6.99609C10.9253 7.15234 12.9175 7.44141 12.5972 8.73047Z" fill="white"/>
<defs>
<linearGradient id="paint0_linear_1_23010" x1="9.99466" y1="-0.0047105" x2="9.99466" y2="19.998" gradientUnits="userSpaceOnUse">
<stop stop-color="#F9AA4B"/>
<stop offset="1" stop-color="#F7931A"/>
</linearGradient>
</defs>
</svg>
